<svg width="1920" height="119" viewBox="0 0 1920 119" fill="none" xmlns="http://www.w3.org/2000/svg">
<path opacity="0.1" fill-rule="evenodd" clip-rule="evenodd" d="M0 0.26178C120.993 1.06132 197.252 23.698 389.283 51.9063C581.313 80.1146 1012.18 71.5779 1012.18 71.5779C1012.18 71.5779 432.749 166.642 0 64.8893" fill="white"/>
<path opacity="0.1" fill-rule="evenodd" clip-rule="evenodd" d="M134.029 91.1701C134.029 91.1701 489.228 49.1894 729.592 40.21C969.955 31.2307 1307.26 48.3936 1307.26 48.3936C1307.26 48.3936 1211.3 49.7488 823.685 96.8019C436.072 143.855 134.029 91.1701 134.029 91.1701Z" fill="white"/>
<path opacity="0.2" fill-rule="evenodd" clip-rule="evenodd" d="M1395.21 44.6974C1508.48 25.4091 1706.45 15.2817 1920 34.7726V103.753C1920 103.753 1583.84 49.245 1395.21 44.6974Z" fill="white"/>
</svg>
