<svg width="1920" height="793" viewBox="0 0 1920 793" fill="none" xmlns="http://www.w3.org/2000/svg">
<path fill-rule="evenodd" clip-rule="evenodd" d="M0 0H1920V772.078C1920 772.078 1548.22 680.911 1348.74 689.349C952.166 706.122 908.176 777.515 558.979 788.442C238.063 798.483 0 715.219 0 715.219V0Z" fill="url(#paint0_linear_74_2554)"/>
<rect opacity="0.1" width="983.896" height="143.129" rx="71.5643" transform="matrix(0.882205 -0.470866 0.52971 0.848179 684.481 558.619)" fill="white"/>
<rect opacity="0.5" width="89.3115" height="10.7346" rx="5.36732" transform="matrix(0.882205 -0.470866 0.52971 0.848179 865.583 392.25)" fill="url(#paint1_linear_74_2554)"/>
<rect opacity="0.5" width="74.4262" height="14.5687" rx="7.28437" transform="matrix(0.882205 -0.470866 0.52971 0.848179 712.677 500.44)" fill="url(#paint2_linear_74_2554)"/>
<rect width="74.4262" height="14.5687" rx="7.28437" transform="matrix(0.882205 -0.470866 0.52971 0.848179 1008.36 691.083)" fill="url(#paint3_linear_74_2554)"/>
<rect opacity="0.05" width="731.191" height="143.129" rx="71.5643" transform="matrix(0.882205 -0.470866 0.52971 0.848179 90.98 344.293)" fill="white"/>
<rect opacity="0.1" width="882.969" height="143.129" rx="71.5643" transform="matrix(0.882205 -0.470866 0.52971 0.848179 1065.22 612.736)" fill="white"/>
<rect opacity="0.05" width="731.191" height="143.129" rx="71.5643" transform="matrix(0.882205 -0.470866 0.52971 0.848179 849.147 599.419)" fill="white"/>
<path opacity="0.1" fill-rule="evenodd" clip-rule="evenodd" d="M0 674.262C120.993 675.061 197.252 697.698 389.283 725.906C581.313 754.115 1012.18 745.578 1012.18 745.578C1012.18 745.578 432.749 840.642 0 738.889" fill="white"/>
<path opacity="0.1" fill-rule="evenodd" clip-rule="evenodd" d="M134.029 765.17C134.029 765.17 489.228 723.189 729.592 714.21C969.955 705.231 1307.26 722.394 1307.26 722.394C1307.26 722.394 1211.3 723.749 823.685 770.802C436.072 817.855 134.029 765.17 134.029 765.17Z" fill="white"/>
<path opacity="0.2" fill-rule="evenodd" clip-rule="evenodd" d="M1395.21 718.697C1508.48 699.409 1706.45 689.282 1920 708.773V777.753C1920 777.753 1583.84 723.245 1395.21 718.697Z" fill="white"/>
<defs>
<linearGradient id="paint0_linear_74_2554" x1="-945.879" y1="394.761" x2="-384.564" y2="1739.72" gradientUnits="userSpaceOnUse">
<stop stop-color="#250E8A"/>
<stop offset="1" stop-color="#00F9F7"/>
</linearGradient>
<linearGradient id="paint1_linear_74_2554" x1="89.3115" y1="0" x2="0" y2="0" gradientUnits="userSpaceOnUse">
<stop stop-color="white" stop-opacity="0.01"/>
<stop offset="1" stop-color="#06CCE2"/>
<stop offset="1" stop-color="white"/>
</linearGradient>
<linearGradient id="paint2_linear_74_2554" x1="74.4262" y1="0" x2="0" y2="0" gradientUnits="userSpaceOnUse">
<stop stop-color="white" stop-opacity="0.01"/>
<stop offset="1" stop-color="#06CCE2"/>
<stop offset="1" stop-color="white"/>
</linearGradient>
<linearGradient id="paint3_linear_74_2554" x1="74.4262" y1="0" x2="0" y2="0" gradientUnits="userSpaceOnUse">
<stop stop-color="white" stop-opacity="0.01"/>
<stop offset="1" stop-color="#06CCE2"/>
<stop offset="1" stop-color="white"/>
</linearGradient>
</defs>
</svg>
